<?xml version="1.0" encoding="UTF-8"?>
<svg width="70px" height="113px" viewBox="0 0 70 113" version="1.1" xmlns="http://www.w3.org/2000/svg" xmlns:xlink="http://www.w3.org/1999/xlink">
    <!-- Generator: Sketch 47.1 (45422) - http://www.bohemiancoding.com/sketch -->
    <title>Combined Shape</title>
    <desc>Created with Sketch.</desc>
    <defs></defs>
    <g id="icons" stroke="none" stroke-width="1" fill="none" fill-rule="evenodd">
        <path d="M38.3967843,88.6320294 L49.7301177,88.6320294 C50.8346872,88.6320294 51.7301177,89.5274599 51.7301177,90.6320294 L51.7301177,113.298696 C51.7301177,114.403266 50.8346872,115.298696 49.7301177,115.298696 L36.7301177,115.298696 L33.7301177,115.298696 L33.7301177,115.298696 C21.5798532,115.298696 11.7301177,105.448961 11.7301177,93.2986961 L11.7301177,75.2986961 L38.3967843,75.2986961 L38.3967843,88.6320294 Z M36.7301177,3.29869611 L49.7301177,3.29869611 L49.7301177,3.29869611 C50.8346872,3.29869611 51.7301177,4.19412661 51.7301177,5.29869611 L51.7301177,27.9653628 C51.7301177,29.0699323 50.8346872,29.9653628 49.7301177,29.9653628 L38.3967843,29.9653628 L38.3967843,43.2986961 L11.7301177,43.2986961 L11.7301177,25.2986961 L11.7301177,25.2986961 C11.7301177,13.1484316 21.5798532,3.29869611 33.7301177,3.29869611 L33.7301177,3.29869611 L36.7301177,3.29869611 Z M11.7301177,43.2986961 L38.3967843,43.2986961 L38.3967843,75.2986961 L11.7301177,75.2986961 L11.7301177,43.2986961 Z M43.7301177,3.29869611 L43.7301177,29.9653628 L46.3967843,29.9653628 L46.3967843,3.29869611 L43.7301177,3.29869611 Z M43.7301177,88.6320294 L43.7301177,115.298696 L46.3967843,115.298696 L46.3967843,88.6320294 L43.7301177,88.6320294 Z" id="Combined-Shape" fill="#5D5D5D" transform="translate(31.730118, 59.298696) rotate(-20.000000) translate(-31.730118, -59.298696) "></path>
    </g>
</svg>