<?xml version="1.0" encoding="UTF-8"?>
<svg width="40px" height="40px" viewBox="0 0 50 40" version="1.1" xmlns="http://www.w3.org/2000/svg" xmlns:xlink="http://www.w3.org/1999/xlink">
    <!-- Generator: Sketch 47.1 (45422) - http://www.bohemiancoding.com/sketch -->
    <title>about-icon</title>
    <desc>Created with Sketch.</desc>
    <defs></defs>
    <g id="Page-1" stroke="none" stroke-width="1" fill="none" fill-rule="evenodd">
        <g id="Product-Page" transform="translate(-250.000000, -10.000000)" fill="#5D5D5D">
            <path d="M274.999483,30.4482539 C280.673003,30.4482539 285.289401,25.8610328 285.289401,20.2221649 C285.289401,14.58624 280.673003,10 274.999483,10 C269.328924,10 264.715488,14.58624 264.715488,20.2221649 C264.715488,25.8610328 269.328924,30.4482539 274.999483,30.4482539 L274.999483,30.4482539 Z M274.999483,11.4715209 C279.856719,11.4715209 283.808837,15.3975385 283.808837,20.2221649 C283.808837,25.0497343 279.856719,28.976733 274.999483,28.976733 C270.145209,28.976733 266.196052,25.0497343 266.196052,20.2221649 C266.196052,15.3975385 270.145209,11.4715209 274.999483,11.4715209 L274.999483,11.4715209 Z M290.516778,26.9852748 C289.109255,26.9852748 287.790567,26.5163501 286.701859,25.6295136 C286.386992,25.3715069 285.919134,25.4166335 285.660529,25.731539 C285.400937,26.0454635 285.447328,26.509483 285.763181,26.7674897 C287.099637,27.8564151 288.78748,28.4567956 290.516778,28.4567956 C294.663343,28.4567956 298.036067,25.1056521 298.036067,20.9863747 C298.036067,16.8680784 294.663343,13.5179159 290.516778,13.5179159 C288.785505,13.5179159 287.097663,14.1173154 285.762194,15.2062408 C285.447328,15.4632664 285.400937,15.927286 285.660529,16.2412105 C285.919134,16.5551349 286.386992,16.6012426 286.702846,16.3442169 C287.7728,15.4701335 289.128009,14.9894367 290.516778,14.9894367 C293.846072,14.9894367 296.555504,17.6793769 296.555504,20.9863747 C296.555504,24.2943536 293.846072,26.9852748 290.516778,26.9852748 L290.516778,26.9852748 Z M285.643749,35.7879126 C282.969851,31.3586348 277.356541,31.9129076 277.197627,31.936452 L272.624659,31.936452 C272.423303,31.9325279 267.906596,31.8148063 265.252439,35.606425 C263.780759,37.7038327 261.619136,45.7520708 260.859113,49.1012523 C260.768305,49.4985629 261.019014,49.8919495 261.417779,49.9812218 C261.816544,50.0724561 262.212348,49.8222975 262.302169,49.4249869 C263.101674,45.908052 265.209996,38.2404473 266.467488,36.4481349 C268.650826,33.3285107 272.542735,33.4148399 272.598996,33.4079728 L277.27659,33.4040488 C277.325942,33.3981627 282.22266,32.9302191 284.395141,36.5786098 C284.41192,36.6070592 284.430674,36.6345276 284.451402,36.661015 C285.784896,38.3336437 288.017586,45.8619444 288.839793,49.4279299 C288.918756,49.7683418 289.223752,49.99888 289.561321,49.99888 C289.615608,49.99888 289.670883,49.9929939 289.727144,49.9812218 C290.124922,49.8899875 290.374644,49.4956199 290.282849,49.0983093 C289.637323,46.3014386 287.349359,37.9942129 285.643749,35.7879126 L285.643749,35.7879126 Z M259.480215,28.4567956 C261.2105,28.4567956 262.900317,27.8564151 264.236772,26.7674897 C264.552626,26.509483 264.599017,26.0454635 264.339425,25.731539 C264.079833,25.4166335 263.613949,25.3715069 263.298095,25.6295136 C262.209387,26.5163501 260.889711,26.9852748 259.480215,26.9852748 C256.15092,26.9852748 253.442476,24.2943536 253.442476,20.9863747 C253.442476,17.6793769 256.15092,14.9894367 259.480215,14.9894367 C260.889711,14.9894367 262.2084,15.4573804 263.294147,16.3442169 C263.610987,16.6012426 264.077859,16.5551349 264.336464,16.2412105 C264.596056,15.927286 264.549665,15.4632664 264.233811,15.2062408 C262.89933,14.1173154 261.2105,13.5179159 259.480215,13.5179159 C255.334636,13.5179159 251.961912,16.8680784 251.961912,20.9863747 C251.961912,25.1056521 255.334636,28.4567956 259.480215,28.4567956 L259.480215,28.4567956 Z M299.982515,38.7907961 C299.193868,35.255222 298.397325,32.8968646 297.615587,31.7794897 C295.671114,28.9963533 292.337871,29.0826825 292.224361,29.0856256 L289.042136,29.0905306 C288.881249,29.0689483 285.060407,28.692239 283.013281,31.5715148 C282.777378,31.9030975 282.857328,32.363193 283.190949,32.5966743 C283.523582,32.8301556 283.986505,32.7526555 284.222408,32.4200918 C285.759233,30.2569562 288.85065,30.5473363 288.961199,30.5571464 L292.251012,30.5571464 C292.276675,30.5385072 294.910104,30.4865134 296.400538,32.6192377 C296.861487,33.278479 297.606704,34.9403166 298.536498,39.1086446 C298.613487,39.4510185 298.91947,39.6854808 299.259013,39.6854808 C299.312313,39.6854808 299.365614,39.6795947 299.418914,39.6678226 C299.818666,39.5795313 300.070362,39.1871258 299.982515,38.7907961 L299.982515,38.7907961 Z M265.955213,32.6967378 C266.164466,33.0479407 266.617519,33.1637004 266.968906,32.9547444 C267.32128,32.7477505 267.437751,32.2964841 267.229485,31.9472431 C265.271193,28.6618276 261.131537,29.0709104 261.036781,29.0856256 L257.801255,29.0856256 C257.667018,29.0856256 254.327853,28.9934103 252.382392,31.7794897 C251.596707,32.9027507 250.80115,35.2620891 250.017439,38.7907961 C249.929592,39.1881068 250.182275,39.5805123 250.58104,39.6678226 C250.635327,39.6795947 250.688628,39.6854808 250.740941,39.6854808 C251.080483,39.6854808 251.387454,39.4510185 251.463456,39.1076636 C252.183997,35.8614886 252.942045,33.5570869 253.598429,32.6192377 C255.074057,30.5051527 257.637406,30.5571464 257.775592,30.5571464 L261.114757,30.5532224 C261.149304,30.5492983 264.488468,30.2353739 265.955213,32.6967378 L265.955213,32.6967378 Z" id="Fill-92"></path>
        </g>
    </g>
</svg>
