<?xml version="1.0" encoding="UTF-8"?>
<svg width="21px" height="29px" viewBox="0 0 21 29" version="1.1" xmlns="http://www.w3.org/2000/svg" xmlns:xlink="http://www.w3.org/1999/xlink">
    <!-- Generator: Sketch 49.1 (51147) - http://www.bohemiancoding.com/sketch -->
    <title>Delete Icon</title>
    <desc>Created with Sketch.</desc>
    <defs></defs>
    <g id="Page-1" stroke="none" stroke-width="1" fill="none" fill-rule="evenodd">
        <g id="Basket-Page" transform="translate(-689.000000, -244.000000)">
            <g id="Delete-Icon" transform="translate(689.000000, 244.000000)">
                <path d="M19.3333333,10.875 L19.3333333,26 C19.3333333,27.6568542 17.9901876,29 16.3333333,29 L4.20833333,29 C2.55147908,29 1.20833333,27.6568542 1.20833333,26 L1.20833333,10.875 L1.20833333,6.04166667 L19.3333333,6.04166667 L19.3333333,10.875 Z M5.33333333,9.66666667 C5.05719096,9.66666667 4.83333333,9.89052429 4.83333333,10.1666667 L4.83333333,21.25 C4.83333333,21.5261424 5.05719096,21.75 5.33333333,21.75 L5.54166667,21.75 C5.81780904,21.75 6.04166667,21.5261424 6.04166667,21.25 L6.04166667,10.1666667 C6.04166667,9.89052429 5.81780904,9.66666667 5.54166667,9.66666667 L5.33333333,9.66666667 Z M10.1666667,9.66666667 C9.89052429,9.66666667 9.66666667,9.89052429 9.66666667,10.1666667 L9.66666667,21.25 C9.66666667,21.5261424 9.89052429,21.75 10.1666667,21.75 L10.375,21.75 C10.6511424,21.75 10.875,21.5261424 10.875,21.25 L10.875,10.1666667 C10.875,9.89052429 10.6511424,9.66666667 10.375,9.66666667 L10.1666667,9.66666667 Z M15,9.66666667 C14.7238576,9.66666667 14.5,9.89052429 14.5,10.1666667 L14.5,21.25 C14.5,21.5261424 14.7238576,21.75 15,21.75 L15.2083333,21.75 C15.4844757,21.75 15.7083333,21.5261424 15.7083333,21.25 L15.7083333,10.1666667 C15.7083333,9.89052429 15.4844757,9.66666667 15.2083333,9.66666667 L15,9.66666667 Z" id="Combined-Shape" fill="#5D5D5D"></path>
                <path d="M20.5416667,3.625 C20.5416667,4.29234407 20.0006774,4.83333333 19.3333333,4.83333333 L1.20833333,4.83333333 C0.540989261,4.83333333 8.17260783e-17,4.29234407 0,3.625 L0,1.20833333 L20.5416667,1.20833333 L20.5416667,3.625 Z" id="Combined-Shape" fill="#5D5D5D" transform="translate(10.270833, 3.020833) scale(1, -1) translate(-10.270833, -3.020833) "></path>
                <path d="M6.54166667,1.91666667 L14,1.91666667 L14,0.5 L6.54166667,0.5 L6.54166667,1.91666667 Z" id="Combined-Shape" stroke="#5D5D5D"></path>
            </g>
        </g>
    </g>
</svg>