<?xml version="1.0" encoding="UTF-8"?>
<svg width="24px" height="23px" viewBox="0 0 24 23" version="1.1" xmlns="http://www.w3.org/2000/svg" xmlns:xlink="http://www.w3.org/1999/xlink">
    <!-- Generator: Sketch 47.1 (45422) - http://www.bohemiancoding.com/sketch -->
    <title>Combined Shape</title>
    <desc>Created with Sketch.</desc>
    <defs></defs>
    <g id="Page-1" stroke="none" stroke-width="1" fill="none" fill-rule="evenodd">
        <g id="Product-Details-Page" transform="translate(-150.000000, -90.000000)" fill="#5D5D5D">
            <path d="M160.713203,99.7132034 L148.213203,99.7132034 L148.213203,99.7132034 C147.660919,99.7132034 147.213203,100.160919 147.213203,100.713203 L147.213203,101.713203 C147.213203,102.265488 147.660919,102.713203 148.213203,102.713203 L160.713203,102.713203 L160.713203,115.213203 C160.713203,115.765488 161.160919,116.213203 161.713203,116.213203 L162.713203,116.213203 C163.265488,116.213203 163.713203,115.765488 163.713203,115.213203 L163.713203,102.713203 L176.213203,102.713203 C176.765488,102.713203 177.213203,102.265488 177.213203,101.713203 L177.213203,100.713203 C177.213203,100.160919 176.765488,99.7132034 176.213203,99.7132034 L163.713203,99.7132034 L163.713203,87.2132034 L163.713203,87.2132034 C163.713203,86.6609187 163.265488,86.2132034 162.713203,86.2132034 L162.713203,86.2132034 L161.713203,86.2132034 C161.160919,86.2132034 160.713203,86.6609187 160.713203,87.2132034 L160.713203,99.7132034 Z" id="Combined-Shape" transform="translate(162.213203, 101.213203) rotate(45.000000) translate(-162.213203, -101.213203) "></path>
        </g>
    </g>
</svg>