<?xml version="1.0" encoding="UTF-8"?>
<svg width="40px" height="40px" viewBox="0 0 40 40" version="1.1" xmlns="http://www.w3.org/2000/svg" xmlns:xlink="http://www.w3.org/1999/xlink">
    <!-- Generator: Sketch 47.1 (45422) - http://www.bohemiancoding.com/sketch -->
    <title>Home</title>
    <desc>Created with Sketch.</desc>
    <defs></defs>
    <g id="Page-1" stroke="none" stroke-width="1" fill="none" fill-rule="evenodd">
        <g id="About-Us-Page" transform="translate(-50.000000, -10.000000)" fill-rule="nonzero" fill="#5D5D5D">
            <path d="M70.3518695,12.8814082 L70.3518695,12.8814082 L70.3518695,12.8814082 C70.1515974,12.6740895 69.8478954,12.6746145 69.6481305,12.8814082 L51.9619229,31.1899158 L52.7272727,29.2962879 L52.7272727,46.6735905 C52.7272727,47.0030871 52.9992483,47.2738859 53.3415776,47.2738859 L86.6584224,47.2738859 C87.0003595,47.2738859 87.2727273,47.0027727 87.2727273,46.6735905 L87.2727273,29.2962879 L88.0380771,31.1899158 L70.3518695,12.8814082 Z M72.3137924,10.9877803 L72.3137924,10.9877803 L90,29.2962879 L90,46.6735905 C90,48.5110401 88.5039247,50 86.6584224,50 L53.3415776,50 C51.4950437,50 50,48.5107157 50,46.6735905 L50,29.2962879 L67.6862076,10.9877803 C68.9528725,9.67654715 71.0359201,9.6649454 72.3137924,10.9877803 L72.3137924,10.9877803 Z" id="Home"></path>
        </g>
    </g>
</svg>