<?xml version="1.0" encoding="UTF-8"?>
<svg width="44px" height="58px" viewBox="0 0 44 58" version="1.1" xmlns="http://www.w3.org/2000/svg" xmlns:xlink="http://www.w3.org/1999/xlink">
    <!-- Generator: Sketch 47.1 (45422) - http://www.bohemiancoding.com/sketch -->
    <title>water</title>
    <desc>Created with Sketch.</desc>
    <defs></defs>
    <g id="icons" stroke="none" stroke-width="1" fill="none" fill-rule="evenodd">
        <g id="water" stroke="#5D5D5D">
            <path d="M21.6271186,1.26156473 C21.4365459,1.42476295 21.1986924,1.65428975 20.9225856,1.94340946 C20.2207927,2.67827795 19.3113438,3.7554446 18.2761002,5.08077833 C16.0377639,7.94632855 13.423524,11.6920509 10.9995187,15.5504331 C4.9510167,25.1780658 1.1,33.7574533 1.1,38.6666667 C1.1,49.3331217 9.86874945,56.9 21.6271186,56.9 C33.3854878,56.9 42.1542373,49.3331217 42.1542373,38.6666667 C42.1542373,33.7574533 38.3032206,25.1780658 32.2547186,15.5504331 C29.8307133,11.6920509 27.2164734,7.94632855 24.9781371,5.08077833 C23.9428935,3.7554446 23.0334446,2.67827795 22.3316517,1.94340946 C22.0555449,1.65428975 21.8176914,1.42476295 21.6271186,1.26156473 Z" id="base" stroke-width="2.2"></path>
            <path d="M22.1546093,49.7142857 L22.1546093,49.7142857 C29.146411,49.7142857 34.8143861,44.1498247 34.8143861,37.2857143" id="detail" stroke-width="2" stroke-linecap="round"></path>
        </g>
    </g>
</svg>